General
Complete name                    : American Pie_The Book Of Love.mkv
Format                           : Matroska
File size                        : 956 MiB
Duration                         : 1h 10mn
Overall bit rate                 : 1 892 Kbps
Writing application              : HandBrake 0.9.4

Video
ID                               : 1
Format                           : AVC
Duration                         : 1h 10mn
Bit rate                         : 1 471 Kbps
Width                            : 720 pixels
Height                           : 572 pixels
Display aspect ratio             : 16:9
Frame rate                       : 25.000 fps
Resolution                       : 8 bits
Colorimetry                      : 4:2:0
Scan type                        : Progressive
Bits/(Pixel*Frame)               : 0.143
Stream size                      : 743 MiB (78%)
Writing library                  : x264 core 79

Audio
ID                               : 2
Format                           : AC-3
Format/Info                      : Audio Coding 3
Codec ID                         : A_AC3
Duration                         : 1h 10mn
Bit rate mode                    : Constant
Bit rate                         : 384 Kbps
Channel(s)                       : 6 channels
Channel positions                : Front: L C R, Side: L R, LFE
Sampling rate                    : 48.0 KHz
Stream size                      : 194 MiB (20%)
Language                         : English

Text #1
ID                               : 3
Language                         : English

Text #2
Language                         : Spanish

Text #3
Language                         : Hungarian

Text #4
Language                         : Dutch

Text #5
Language                         : Portuguese

Text #6
Language                         : Arabic

Text #7
Language                         : Danish

Text #8
Language                         : Finnish

Text #9
Language                         : Icelandic

Text #10
Language                         : Norwegian

Text #11
Language                         : Romanian

Text #12
Language                         : Swedish

